# xmcd
#
# Track frame offsets: 
#        150
#        18147
#        34345
#        51930
#        68396
#        82332
#        98629
#        117055
#        134582
#        150132
#        165698
#
# Disc length: 2590 seconds
#
# Revision: 0
# Processed by: cddbd v1.5.2PL0 Copyright (c) Steve Scherf et al.
# Submitted via: ExactAudioCopy v0.95b4
#
DISCID=810a1c0b
DTITLE=DERIC RUTTAN - SUNSHINE
DYEAR=2010
DGENRE=COUNTRY
TTITLE0=SING THAT SONG AGAIN
TTITLE1=SUNSHINE HEY LITTLE GIRL
TTITLE2=THAT'S HOW I WANT TO GO OUT
TTITLE3=UP ALL NIGHT
TTITLE4=I STILL THINK OF YOU
TTITLE5=WHERE THE TRAIN DON'T STOP
TTITLE6=ONE IN A MILLION
TTITLE7=WE'RE ALL ALRIGHT
TTITLE8=THE RIVER TAUGHT HER HOW TO RUN
TTITLE9=THAT GUY
TTITLE10=JUST TO GET TO YOU
EXTD=
EXTT0=
EXTT1=
EXTT2=
EXTT3=
EXTT4=
EXTT5=
EXTT6=
EXTT7=
EXTT8=
EXTT9=
EXTT10=
PLAYORDER=
